# xmcd CD Database Entry
#
# Track frame offsets:
# 150
# 15611
# 35888
# 52682
# 72554
# 95042
# 112829
# 128346
# 147788
# 160948
# 178262
# 196353
# 217786
# 236031
# 253788
# 273389
# 292092
# 309896
# 328789
#
# Disc length: 4656 seconds
#
# Revision: 1
# Processed by: cddbd v1.4PL0 Copyright (c) Steve Scherf et al.
# Submitted via: tcd 2.0b
#
DISCID=16122e13
DTITLE=Simply Red - It's only love
DYEAR=1900
DGENRE=
TTITLE0=If you don't know me by now
TTITLE1=Holding back the years
TTITLE2=Say you love me
TTITLE3=The air that I breath
TTITLE4=It's only love
TTITLE5=You've got it
TTITLE6=Ev'ry time we say goodbye
TTITLE7=For your babies
TTITLE8=Lady Godiva's room
TTITLE9=Your eyes (mousse T accustic)
TTITLE10=Thank you
TTITLE11=Remembering the first time
TTITLE12=Angel
TTITLE13=Night nurse
TTITLE14=Never never love
TTITLE15=More
TTITLE16=Mellow my mind
TTITLE17=Stars
TTITLE18=Heaven
EXTD=
EXTT0=
EXTT1=
EXTT2=
EXTT3=
EXTT4=
EXTT5=
EXTT6=
EXTT7=
EXTT8=
EXTT9=
EXTT10=
EXTT11=
EXTT12=
EXTT13=
EXTT14=
EXTT15=
EXTT16=
EXTT17=
EXTT18=
PLAYORDER=
